<svg xmlns="http://www.w3.org/2000/svg" fill="none" viewBox="0 0 70 54">
  <path fill="#212121" d="M3.49817 53.8865H59.4689c1.9318 0 3.4981-1.5663 3.4981-3.4982v-4.6642c0-1.9318-1.5663-3.4982-3.4981-3.4982h-1.1661v-29.079l6.6234-6.27443c1.5373.75782 3.398.29777 4.404-1.0909 1.0067-1.38811.8655-3.29946-.3336-4.52473S65.8901-.1512 64.4798.82412c-1.4097.97589-1.9108 2.82575-1.1865 4.37954L58.3028 9.9345V7.24426c0-1.93185-1.5663-3.49817-3.4982-3.49817H8.16239c-1.93185 0-3.49817 1.56632-3.49817 3.49817V42.2259H3.49817C1.56632 42.2259 0 43.7923 0 45.7241v4.6642c0 1.9319 1.56632 3.4982 3.49817 3.4982ZM66.4652 2.58004c.6439 0 1.166.5221 1.166 1.16605s-.5221 1.16606-1.166 1.16606c-.644 0-1.1661-.52211-1.1661-1.16606 0-.64395.5221-1.16605 1.1661-1.16605ZM6.99634 7.24426c0-.64395.5221-1.16605 1.16605-1.16605H54.8046c.644 0 1.1661.5221 1.1661 1.16605v4.89714l-2.3321 2.2159V9.57637c0-.64395-.5221-1.16605-1.1661-1.16605h-41.978c-.64395 0-1.16605.5221-1.16605 1.16605V38.7278c0 .6439.5221 1.166 1.16605 1.166h41.978c.644 0 1.1661-.5221 1.1661-1.166V17.5651l2.3321-2.2097v26.8705H6.99634V7.24426ZM17.4908 22.403c-1.5777-.0046-2.9629 1.0465-3.3825 2.5673-.4197 1.5207.23 3.1337 1.5868 3.9388 1.3562.8051 3.0842.603 4.2178-.4942l4.0533 2.0338c.4709.2357 1.0419.1252 1.3921-.2682l8.6162-9.6934 8.4698 6.3467c.4544.3405 1.0886.304 1.5009-.086l7.3613-6.973v17.7869H11.6606V10.7424h39.6459v5.8195l-8.2501 7.8128-8.541-6.4031c-.4851-.3632-1.1678-.2949-1.5709.1578l-8.7346 9.8277-3.2653-1.6329c.0239-.1401.0387-.2813.0444-.423 0-1.9319-1.5663-3.4982-3.4982-3.4982Zm1.1661 3.4982c0 .6439-.5221 1.166-1.1661 1.166-.6439 0-1.166-.5221-1.166-1.166 0-.644.5221-1.1661 1.166-1.1661.644 0 1.1661.5221 1.1661 1.1661Zm6.9963 18.6569h11.6606v1.166c0 .644-.5221 1.1661-1.1661 1.1661h-9.3284c-.644 0-1.1661-.5221-1.1661-1.1661v-1.166Zm-23.32109 1.166c0-.6439.52211-1.166 1.16606-1.166H23.3211v1.166c0 1.9319 1.5663 3.4982 3.4982 3.4982h9.3284c1.9319 0 3.4982-1.5663 3.4982-3.4982v-1.166h19.823c.6439 0 1.166.5221 1.166 1.166v4.6642c0 .644-.5221 1.1661-1.166 1.1661H3.49817c-.64395 0-1.16606-.5221-1.16606-1.1661v-4.6642Z"/>
</svg>
