<svg xmlns="http://www.w3.org/2000/svg" fill="none" viewBox="0 0 44 44">
  <path fill="#2196F3" d="M44 21.9999c0 6.0752-2.4624 11.5752-6.4436 15.5564-3.9813 3.9812-9.4813 6.4436-15.5564 6.4436-6.0751 0-11.5751-2.4624-15.55635-6.4436C2.46243 33.5751 0 28.0751 0 21.9999c0-6.0751 2.46243-11.5751 6.44365-15.55631C10.4249 2.46237 15.9249-.00006 22-.00006c6.0751 0 11.5751 2.46243 15.5564 6.44365C41.5376 10.4248 44 15.9248 44 21.9999Z"/>
  <g fill="white" clip-path="url(#clip0_75273_573)">
    <path d="M31.9804 17.8801c-.0468-1.0627-.2187-1.7933-.4648-2.4264-.254-.6719-.6447-1.2736-1.1566-1.7737-.5001-.5079-1.1057-.9026-1.7699-1.1526-.6367-.2461-1.3635-.418-2.4261-.4648C25.0924 12.0118 24.7525 12 22.0371 12s-3.0553.0118-4.1219.0586c-1.0627.0469-1.7933.2189-2.4262.4649-.6721.2539-1.2737.6446-1.7738 1.1565-.5079.5001-.9025 1.1057-1.1526 1.7699-.2462.6369-.418 1.3635-.4649 2.4262-.0508 1.0706-.0625 1.4105-.0625 4.1259 0 2.7153.0117 3.0552.0586 4.1219.0468 1.0626.2188 1.7932.465 2.4263.2539.6719.6485 1.2736 1.1564 1.7737.5001.5079 1.1057.9026 1.7699 1.1526.6368.2461 1.3635.418 2.4263.4648 1.0665.047 1.4065.0586 4.1219.0586s3.0552-.0116 4.1219-.0586c1.0627-.0468 1.7932-.2187 2.4261-.4648 1.3441-.5197 2.4068-1.5824 2.9265-2.9263.246-.6369.418-1.3637.4649-2.4263.0468-1.0667.0586-1.4066.0586-4.1219 0-2.7154-.004-3.0553-.0509-4.1219Zm-1.801 8.1656c-.043.9768-.2071 1.5042-.3438 1.8558-.3361.8713-1.0276 1.5628-1.8989 1.8989-.3516.1368-.8829.3008-1.8558.3437-1.0549.047-1.3713.0586-4.0398.0586s-2.9889-.0116-4.04-.0586c-.9767-.0429-1.5042-.2069-1.8558-.3437-.4336-.1602-.8283-.4142-1.1486-.7463-.3321-.3243-.5861-.715-.7463-1.1486-.1367-.3516-.3008-.883-.3437-1.8558-.047-1.0549-.0586-1.3714-.0586-4.04 0-2.6685.0116-2.9888.0586-4.0398.0429-.9767.207-1.5042.3437-1.8558.1602-.4337.4142-.8282.7503-1.1487.3241-.3321.7148-.5861 1.1486-.7462.3516-.1367.883-.3008 1.8558-.3438 1.0549-.0469 1.3714-.0586 4.0398-.0586 2.6725 0 2.9888.0117 4.0399.0586.9768.043 1.5042.2071 1.8559.3438.4335.1601.8282.4141 1.1486.7462.332.3243.586.715.7463 1.1487.1367.3516.3008.8829.3438 1.8558.0469 1.0549.0586 1.3713.0586 4.0398 0 2.6686-.0117 2.9811-.0586 4.036Z"/>
    <path d="M22.0371 16.8642c-2.8364 0-5.1377 2.3012-5.1377 5.1377 0 2.8366 2.3013 5.1377 5.1377 5.1377 2.8366 0 5.1378-2.3011 5.1378-5.1377 0-2.8365-2.3012-5.1377-5.1378-5.1377Zm0 8.4704c-1.8401 0-3.3327-1.4924-3.3327-3.3327 0-1.8402 1.4926-3.3327 3.3327-3.3327 1.8403 0 3.3327 1.4925 3.3327 3.3327 0 1.8403-1.4924 3.3327-3.3327 3.3327Zm6.5404-8.6735c0 .6624-.5371 1.1994-1.1996 1.1994-.6624 0-1.1994-.537-1.1994-1.1994 0-.6625.537-1.1994 1.1994-1.1994.6625 0 1.1996.5369 1.1996 1.1994Z"/>
  </g>
  <defs>
    <clipPath id="clip0_75273_573">
      <path fill="white" d="M12 12h20v20H12z"/>
    </clipPath>
  </defs>
</svg>
