<svg xmlns="http://www.w3.org/2000/svg" fill="none" viewBox="0 0 45 42">
  <path fill="#AFB1B8" d="M7.40628 41.1885a.13334.13334 0 0 1 .0461.0092.12142.12142 0 0 1 .03842.0239l.21812.2085c-.16931.1688-.37857.3037-.61346.3957-.27507.1003-.57152.1488-.86974.1421-.28024.0051-.55867-.0401-.81795-.1326-.23388-.085-.44401-.2127-.61618-.3744-.17571-.1677-.31105-.3642-.39806-.5781-.09529-.2383-.14234-.4892-.13905-.7415-.00387-.254.04699-.5063.14995-.744.09525-.2152.23892-.4117.42261-.5781.18617-.1631.40888-.2913.65435-.3767.26853-.0904.55449-.1355.84248-.1327.26751-.0056.5336.0355.7825.1209.21594.0814.41421.1944.58619.334l-.18268.2227a.17633.17633 0 0 1-.04635.0403c-.02155.0129-.0476.0187-.07361.0166-.0283-.0017-.05558-.0099-.07907-.0237l-.09815-.0592-.13633-.0758a1.5512 1.5512 0 0 0-.18267-.0735 1.92118 1.92118 0 0 0-.24811-.0592 1.90198 1.90198 0 0 0-.32445-.0237c-.20738-.0023-.41318.0316-.60527.0995-.17915.0629-.34086.1582-.47441.2796-.13595.129-.24072.2805-.30809.4454-.07679.1886-.11463.3875-.11179.5876-.00327.2031.03457.4052.11179.597.06653.1635.16935.314.30264.4431.12487.1203.27966.2142.45259.2748.17797.0641.369.0963.56165.0948a2.38354 2.38354 0 0 0 .33263-.019c.17979-.0191.35225-.0733.5044-.1587a1.6624 1.6624 0 0 0 .21539-.1469c.02803-.0233.06489-.0368.10361-.0379Zm6.29812-1.0477c.0034.2514-.0465.5012-.1472.7368-.0888.2138-.2288.4087-.4107.5721-.1819.1633-.4015.2913-.6444.3755-.5338.177-1.1239.177-1.6577 0-.2414-.0855-.4596-.2138-.6407-.3766-.1818-.1664-.32275-.363-.41443-.5781-.1964-.4772-.1964-.9987 0-1.4759.09301-.2152.23383-.4124.41443-.5804.1827-.1578.4008-.2812.6407-.3625.5331-.1801 1.1246-.1801 1.6577 0 .2422.0855.4613.2138.6434.3767.1795.1647.3195.3588.4117.5709.101.2373.1509.4886.1472.7415Zm-.5725 0c.0043-.201-.0308-.4013-.1036-.5922-.0611-.1636-.1604-.3144-.2917-.443-.1279-.1217-.2853-.2172-.4608-.2796-.3879-.1295-.8172-.1295-1.2051 0-.1755.0624-.3329.1579-.4608.2796-.1331.1279-.2335.2789-.2944.443-.1387.3856-.1387.7989 0 1.1845.0615.1639.1618.3148.2944.443.128.121.2854.2157.4608.2772.3886.1262.8165.1262 1.2051 0 .1754-.0615.3328-.1562.4608-.2772.1307-.129.2299-.2797.2917-.443.0732-.1908.1082-.3911.1036-.5923Zm4.8694.6209.0573.1327c.0218-.0474.0409-.09.0627-.1327a1.201 1.201 0 0 1 .0709-.1302l1.3932-2.2006c.0273-.0379.0518-.0616.0791-.0687a.37614.37614 0 0 1 .1145-.0119h.4117v3.5792h-.4881v-2.743a.97394.97394 0 0 1 0-.1232l-1.4014 2.2314c-.0178.0334-.0462.0617-.082.0814-.0358.0198-.0774.0302-.1197.0299h-.0791c-.0425.0006-.0842-.0097-.12-.0295-.0358-.0197-.0642-.0482-.0818-.0818l-1.4423-2.2456v2.8733h-.4716v-3.5721h.4117a.3768.3768 0 0 1 .1145.0119c.0338.0145.0607.0388.0763.0687l1.4232 2.2029c.028.0407.0517.0836.0709.1279Zm5.243-.1778v1.3407h-.5453v-3.5744h1.216c.2296-.0038.4585.0225.6789.0782.1765.0434.3402.1194.4799.2226.1211.0968.2145.2169.2726.3506.0644.1458.0959.301.0927.4572.0024.1567-.0319.3123-.1008.4571-.0656.1372-.1663.2595-.2945.3577-.1399.1076-.3043.1883-.4826.2369-.2123.0589-.4343.0869-.6571.0829l-.6598-.0095Zm0-.3837h.6598c.1434.0016.286-.0168.4226-.0545.1127-.033.2166-.0853.3054-.154.0819-.0655.1454-.1466.1854-.2368.0446-.0955.0669-.1978.0654-.3009.0064-.0993-.0123-.1987-.0547-.2912-.0423-.0924-.1074-.1757-.1906-.2441-.2083-.1413-.47-.2097-.7335-.1919h-.6598v1.4734Zm7.3288 1.7292h-.4308c-.0432.0015-.0857-.0103-.12-.0331-.0309-.0223-.0552-.0508-.0709-.083l-.3708-.8646h-1.8621l-.3845.8646c-.0141.0317-.0376.0594-.0681.0806-.0347.0242-.0782.0369-.1227.0355h-.4308l1.6359-3.5795h.5671l1.6577 3.5795Zm-2.6992-1.329h1.5377l-.6489-1.4569a2.36662 2.36662 0 0 1-.1227-.3364l-.0627.1871c-.0191.0569-.0409.109-.06.1516l-.6434 1.4546Zm5.0549-2.2339c.0326.0155.0606.0374.0818.064l2.3856 2.6982v-2.7788h.4881v3.5795h-.2727a.26376.26376 0 0 1-.1118-.0213c-.0336-.017-.0633-.0396-.0872-.0663l-2.3829-2.6959a.97394.97394 0 0 1 0 .1232v2.6603h-.4881v-3.5795h.289a.26052.26052 0 0 1 .0982.0166Zm6.9743 2.1393v1.4214h-.5453v-1.4214L37.85 38.3501h.4881c.042-.0022.0836.0087.1172.0308.0297.023.0546.0502.0736.0805l.9434 1.3906c.0382.0592.0709.1137.0982.1658.0272.0522.049.1019.0681.1517l.0709-.154c.0265-.0563.0574-.111.0927-.1635l.9297-1.4a.3765.3765 0 0 1 .0709-.0759c.0324-.0245.0744-.0372.1173-.0355h.4935l-1.5105 2.1652Zm-22.1717-8.1627c.2372.0261.4772.0474.7198.0663 3.6789-1.4298 6.791-3.7701 8.9475-6.7282 2.1565-2.9582 3.2616-6.403 3.1772-9.9038l-4.0543-3.5226c.8244 3.7273.4388 7.5804-1.1136 11.1281-1.5525 3.5477-4.2104 6.6502-7.6766 8.9602Z"/>
  <path fill="#AFB1B8" d="m16.2837 32.1793.1091.0189c3.7038-2.3018 6.5277-5.5162 8.1065-9.2274 1.5787-3.7111 1.8396-7.7485.749-11.5899l-5.7746-5.01719c2.3357 4.12399 3.2758 8.73939 2.7111 13.30939-.5647 4.5701-2.6111 8.9069-5.9011 12.5062Zm19.5842-12.2657c-.9811 3.8466-3.3638 7.3157-6.7944 9.8923-1.0019.7567-2.0826 1.4307-3.2281 2.0135 2.7935-.7133 5.3611-1.9746 7.5048-3.6864 2.1438-1.7118 3.8064-3.8286 4.8598-6.1869l-2.3421-2.0325Z"/>
  <path fill="#AFB1B8" d="M34.9491 19.3472 31.6146 16.45c-.0637 3.3031-1.1445 6.5311-3.13 9.3485-1.9855 2.8173-4.8032 5.1213-8.1603 6.6723h.0163a21.7448 21.7448 0 0 0 2.2385-.1161c3.1374-1.1126 5.9089-2.8827 8.0674-5.1524 2.1584-2.2697 3.6366-4.9683 4.3026-7.8551ZM16.7663 4.24794 12.7883.78699C9.23222 1.98094 6.1738 4.07987 4.01337 6.80906 1.85294 9.53825.69115 12.7706.68005 16.0829c.01333 3.6601 1.43121 7.2118 4.02924 10.0929 2.59802 2.8812 6.22781 4.9272 10.31481 5.8143 3.6484-3.8621 5.7845-8.6343 6.0978-13.6233.3133-4.989-1.2125-9.93482-4.3556-14.11886ZM44.1401 18.8144c-.0144-4.3425-2.0062-8.5036-5.5404-11.57418-3.5341-3.07061-8.3233-4.8012-13.3213-4.8137-2.3096-.00208-4.5995.36821-6.7535 1.09205L42.8805 24.6797c.8339-1.8706 1.261-3.8594 1.2596-5.8653Z"/>
</svg>
