<svg xmlns="http://www.w3.org/2000/svg" fill="none" viewBox="0 0 85 42">
  <path fill="#2196F3" d="M13.1462 13.1899h-.0029c-2.398 0-4.34203 1.7276-4.34203 3.8586v.0026c0 2.1311 1.94403 3.8587 4.34203 3.8587h.0029c2.398 0 4.342-1.7276 4.342-3.8587v-.0026c0-2.131-1.944-3.8586-4.342-3.8586Zm32.0488-1.2336c-.0068-2.95997-1.3327-5.79704-3.6876-7.89031-2.3549-2.09328-5.547-3.27228-8.8777-3.279-3.3317.00538-6.5252 1.18379-8.8813 3.27721-2.3562 2.09342-3.6829 4.93125-3.6897 7.8921v16.3229s25.1335-2.4878 25.1363-16.3203v-.0026ZM0 33.6365c.00604 2.0596.92915 4.0333 2.56761 5.4899 1.63846 1.4566 3.85907 2.2776 6.17657 2.2837 2.31702-.006 4.53722-.8267 6.17552-2.2828 1.6384-1.456 2.5619-3.4291 2.5687-5.4883V22.2814S0 24.0136 0 33.6365Zm8.74418 2.035c-.45288 0-.89559-.1194-1.27215-.343-.37655-.2236-.67004-.5414-.84335-.9132-.17331-.3719-.21866-.7811-.1303-1.1758.08835-.3947.30643-.7573.62667-1.0419.32023-.2846.72823-.4784 1.17241-.557.44418-.0785.90458-.0382 1.32299.1158.41845.1541.77605.4149 1.02765.7495.2516.3347.3859.7281.3859 1.1306.0011.2679-.0573.5333-.1718.7811-.1146.2478-.2831.473-.4958.6628-.2128.1898-.46559.3403-.74396.4431-.27838.1027-.57683.1556-.87826.1556v-.0076Zm15.98602-3.6432v4.2656h-.8789v-4.2656h.8789Zm1.6992 1.8223v.6855h-1.9395v-.6855h1.9395Zm.2051-1.8223v.6885h-2.1446v-.6885h2.1446Zm4.0136 2.0332v.2022c0 .3242-.0439.6152-.1318.873-.0879.2578-.2119.4776-.3721.6592-.1601.1797-.3515.3174-.5742.4131-.2207.0957-.4658.1435-.7353.1435-.2676 0-.5127-.0478-.7354-.1435-.2207-.0957-.4121-.2334-.5742-.4131-.1621-.1816-.2881-.4014-.3779-.6592-.0879-.2578-.1319-.5488-.1319-.873v-.2022c0-.3261.044-.6172.1319-.873.0878-.2578.2119-.4776.372-.6592.1621-.1816.3535-.3203.5742-.416.2227-.0957.4678-.1436.7354-.1436.2695 0 .5146.0479.7353.1436.2227.0957.4141.2344.5743.416.1621.1816.2871.4014.375.6592.0898.2558.1347.5469.1347.873Zm-.8877.2022v-.208c0-.2266-.0205-.4258-.0615-.5977-.041-.1719-.1015-.3164-.1816-.4336-.0801-.1172-.1778-.2051-.293-.2637-.1152-.0605-.2471-.0908-.3955-.0908-.1484 0-.2803.0303-.3955.0908-.1133.0586-.21.1465-.2901.2637-.0781.1172-.1376.2617-.1787.4336-.041.1719-.0615.3711-.0615.5977v.208c0 .2246.0205.4238.0615.5976.0411.1719.1016.3174.1817.4366.0801.1171.1777.206.2929.2666.1153.0605.2471.0908.3956.0908.1484 0 .2802-.0303.3955-.0908.1152-.0606.2119-.1495.29-.2666.0781-.1192.1377-.2647.1787-.4366.041-.1738.0615-.373.0615-.5976Zm3.7412.914c0-.0761-.0117-.1445-.0351-.205-.0215-.0625-.0625-.1192-.1231-.17-.0605-.0527-.1455-.1045-.2548-.1552-.1094-.0508-.251-.1036-.4248-.1582-.1934-.0625-.377-.1329-.5508-.211-.1719-.0781-.3242-.1689-.4571-.2724-.1308-.1055-.2343-.2276-.3105-.3663-.0742-.1386-.1113-.2998-.1113-.4834 0-.1777.039-.3388.1172-.4833.0781-.1465.1875-.2715.3281-.375.1406-.1055.3066-.1866.498-.2432.1934-.0567.4053-.085.6358-.085.3144 0 .5888.0567.8232.1699.2344.1133.416.2686.5449.4659.1309.1972.1963.4228.1963.6767h-.873c0-.125-.0264-.2343-.0791-.3281-.0508-.0957-.1289-.1709-.2344-.2256-.1035-.0547-.2344-.082-.3926-.082-.1523 0-.2793.0234-.3808.0703-.1016.0449-.1778.1064-.2286.1846-.0507.0761-.0761.1621-.0761.2578 0 .0722.0176.1377.0527.1963.0371.0586.0918.1133.1641.164.0722.0508.1611.0987.2666.1436.1054.0449.2275.0889.3662.1318.2324.0703.4365.1494.6123.2373.1777.0879.3262.1866.4453.2959.1191.1094.209.2334.2695.3721.0606.1387.0909.2959.0909.4717 0 .1855-.0362.3515-.1084.498-.0723.1465-.1768.2705-.3135.3721-.1367.1016-.2998.1787-.4893.2314-.1894.0528-.4013.0791-.6357.0791-.211 0-.419-.0273-.624-.082-.2051-.0566-.3916-.1416-.5596-.2549-.166-.1133-.2988-.2578-.3985-.4336-.0996-.1758-.1494-.3838-.1494-.624h.8819c0 .1328.0205.2451.0615.3369.041.0918.0986.166.1728.2227.0762.0566.1661.0976.2696.123.1054.0254.2207.0381.3457.0381.1523 0 .2773-.0215.375-.0644.0996-.043.1728-.1026.2197-.1788.0488-.0761.0732-.1621.0732-.2578Zm3.3838-3.1494v4.2656h-.8759v-4.2656h.8759Zm1.3125 0v.6885h-3.4804v-.6885h3.4804Zm3.3633 3.5801v.6855h-2.2705v-.6855h2.2705Zm-1.9834-3.5801v4.2656h-.8789v-4.2656h.8789Zm1.6875 1.7373v.668h-1.9746v-.668h1.9746Zm.293-1.7373v.6885h-2.2676v-.6885h2.2676Zm.5156 0h1.5908c.3262 0 .6065.0488.8409.1465.2363.0977.4179.2422.5449.4336.1269.1914.1904.4268.1904.7061 0 .2285-.0391.4248-.1172.5888-.0762.1621-.1846.2979-.3252.4072-.1386.1075-.3017.1934-.4892.2579l-.2784.1464h-1.3828l-.0058-.6855h1.0283c.1543 0 .2822-.0273.3838-.082.1015-.0547.1777-.1309.2285-.2285.0527-.0977.0791-.211.0791-.3399 0-.1367-.0254-.2549-.0762-.3545-.0508-.0996-.1279-.1758-.2314-.2285-.1035-.0527-.2334-.0791-.3897-.0791h-.7119v3.5771h-.8789v-4.2656Zm2.3848 4.2656-.9727-1.9013.9287-.0059.9844 1.8662v.041h-.9404Zm4.6142-1.5205H47.986v-.6855h1.0869c.168 0 .3047-.0274.4102-.082.1055-.0567.1826-.1348.2314-.2344.0489-.0996.0733-.2119.0733-.3369 0-.127-.0244-.2451-.0733-.3545-.0488-.1094-.1259-.1973-.2314-.2637-.1055-.0664-.2422-.0996-.4102-.0996h-.7822v3.5771h-.8789v-4.2656h1.6611c.334 0 .6202.0606.8584.1817.2403.1191.4239.2841.5508.4951.127.2109.1904.4521.1904.7236 0 .2754-.0634.5137-.1904.7149-.1269.2011-.3105.3564-.5508.4658-.2382.1094-.5244.164-.8584.164Zm5.0684.835v.6855h-2.2705v-.6855h2.2705Zm-1.9834-3.5801v4.2656h-.8789v-4.2656h.8789Zm1.6875 1.7373v.668h-1.9746v-.668h1.9746Zm.293-1.7373v.6885h-2.2676v-.6885h2.2676Zm2.4814 0v4.2656h-.876v-4.2656h.876Zm1.3125 0v.6885h-3.4805v-.6885h3.4805Zm3.3633 3.5801v.6855h-2.2705v-.6855h2.2705Zm-1.9834-3.5801v4.2656h-.8789v-4.2656h.8789Zm1.6875 1.7373v.668h-1.9746v-.668h1.9746Zm.293-1.7373v.6885h-2.2676v-.6885h2.2676Zm.5156 0h1.5908c.3262 0 .6065.0488.8408.1465.2364.0977.418.2422.545.4336.1269.1914.1904.4268.1904.7061 0 .2285-.0391.4248-.1172.5888-.0762.1621-.1846.2979-.3252.4072-.1387.1075-.3018.1934-.4893.2579l-.2783.1464h-1.3828l-.0059-.6855h1.0284c.1543 0 .2822-.0273.3838-.082.1015-.0547.1777-.1309.2285-.2285.0527-.0977.0791-.211.0791-.3399 0-.1367-.0254-.2549-.0762-.3545-.0508-.0996-.1279-.1758-.2314-.2285-.1036-.0527-.2334-.0791-.3897-.0791h-.7119v3.5771h-.8789v-4.2656Zm2.3848 4.2656-.9727-1.9013.9287-.0059.9844 1.8662v.041h-.9404Zm3.6796-1.1162c0-.0761-.0117-.1445-.0351-.205-.0215-.0625-.0625-.1192-.1231-.17-.0605-.0527-.1455-.1045-.2548-.1552-.1094-.0508-.251-.1036-.4248-.1582-.1934-.0625-.377-.1329-.5508-.211-.1719-.0781-.3242-.1689-.4571-.2724-.1308-.1055-.2343-.2276-.3105-.3663-.0742-.1386-.1113-.2998-.1113-.4834 0-.1777.039-.3388.1172-.4833.0781-.1465.1875-.2715.3281-.375.1406-.1055.3066-.1866.498-.2432.1934-.0567.4053-.085.6358-.085.3144 0 .5888.0567.8232.1699.2344.1133.416.2686.5449.4659.1309.1972.1963.4228.1963.6767h-.873c0-.125-.0264-.2343-.0791-.3281-.0508-.0957-.1289-.1709-.2344-.2256-.1035-.0547-.2344-.082-.3926-.082-.1523 0-.2793.0234-.3808.0703-.1016.0449-.1778.1064-.2286.1846-.0507.0761-.0761.1621-.0761.2578 0 .0722.0175.1377.0527.1963.0371.0586.0918.1133.1641.164.0722.0508.1611.0987.2666.1436.1054.0449.2275.0889.3662.1318.2324.0703.4365.1494.6123.2373.1777.0879.3262.1866.4453.2959.1191.1094.209.2334.2695.3721.0606.1387.0908.2959.0908.4717 0 .1855-.0361.3515-.1084.498-.0722.1465-.1767.2705-.3134.3721-.1367.1016-.2998.1787-.4893.2314-.1894.0528-.4014.0791-.6357.0791-.211 0-.419-.0273-.6241-.082-.205-.0566-.3916-.1416-.5595-.2549-.166-.1133-.2988-.2578-.3985-.4336-.0996-.1758-.1494-.3838-.1494-.624h.8819c0 .1328.0205.2451.0615.3369.041.0918.0986.166.1728.2227.0762.0566.1661.0976.2696.123.1054.0254.2207.0381.3457.0381.1523 0 .2773-.0215.375-.0644.0996-.043.1728-.1026.2197-.1788.0488-.0761.0732-.1621.0732-.2578Z"/>
</svg>
