<svg xmlns="http://www.w3.org/2000/svg" fill="none" viewBox="0 0 94 45">
  <path fill="#AFB1B8" d="M47.425 21.4952c-.4431-.5898-.6551-1.2869-.6047-1.9886v-2.8832c0-.8838.2004-1.5555.6013-2.015.4008-.4595 1.0894-.6883 2.0655-.6863.9173 0 1.5684.1955 1.9534.5866.42.499.6243 1.1091.5775 1.7246v.6775h-1.6408v-.6863a3.49506 3.49506 0 0 0-.0476-.6717c-.0236-.152-.1062-.2926-.2344-.3988-.1685-.1146-.3807-.1701-.5945-.1555-.2248-.0145-.4478.0441-.6251.1643-.1429.1176-.2382.2719-.2718.4399a3.33023 3.33023 0 0 0-.0645.7127v3.4992c-.0259.3375.0465.6753.2106.9825.0816.104.1949.1864.3275.2382.1325.0517.279.0708.4233.0551.2102.015.4188-.0419.5809-.1583.1337-.1146.2197-.2641.2446-.4253.0383-.2322.0554-.4666.051-.701v-.7098h1.6408v.6482c.0461.6415-.1532 1.2784-.5673 1.8126-.3771.4282-1.0192.6423-1.9636.6423-.9444 0-1.6579-.2287-2.0621-.7039Zm6.8319.0293c-.4145-.4487-.6217-1.1028-.6217-1.968v-3.0328c0-.8565.2072-1.5047.6217-1.9446.4144-.44 1.1075-.659 2.079-.657.9648 0 1.6545.219 2.0689.657.4145.4399.6251 1.0881.6251 1.9446v3.0328c0 .8564-.2106 1.5134-.6319 1.9651-.4212.4517-1.1074.6775-2.0621.6775-.9546 0-1.6612-.2287-2.079-.6746Zm2.8434-.7274c.1484-.2811.216-.589.1971-.8975v-3.7132c.019-.3025-.0475-.6045-.1937-.8799-.0832-.1062-.1994-.1899-.3351-.2418-.1358-.0519-.2857-.0697-.4327-.0515-.1474-.0178-.2976.0003-.4338.0521-.1362.0518-.253.1353-.3373.2412-.1494.2746-.2171.577-.197.8799v3.7308c-.0207.3086.047.6169.197.8975.0956.0947.2137.1705.3461.2224.1324.052.2762.0789.4217.0789.1454 0 .2892-.0269.4216-.0789.1324-.0519.2505-.1277.3461-.2224v-.0176Zm3.9032-6.7865h1.7666l1.3283 5.5956 1.3589-5.5956h1.719l.1733 8.0767H66.079l-.1359-5.6133-1.3113 5.6133h-1.0192l-1.3589-5.6338-.1257 5.6338h-1.2841l.1596-8.0767Zm8.3267 0h2.7517c1.5854 0 2.378.7644 2.378 2.2933 0 1.4645-.8345 2.1957-2.5037 2.1937h-.9376v3.5897H69.32l.0102-8.0767Zm2.3509 3.4518c.1678.0184.3382.0051.4995-.039.1613-.044.3096-.1178.4347-.2162.1948-.2728.2807-.5931.2446-.912.0089-.2464-.0185-.4928-.0816-.7332-.0242-.0803-.0667-.1557-.125-.2216-.0584-.066-.1313-.1213-.2147-.1626-.2358-.0977-.4964-.1421-.7575-.1291h-.6591v2.4137h.6591Zm5.2283-3.4518h1.8243l1.8718 8.0767h-1.583l-.3703-1.8623h-1.6273l-.3805 1.8623h-1.6068l1.8718-8.0767Zm1.5593 5.2789-.6353-3.3903-.6352 3.3903h1.2705Zm3.6486-5.2789h1.189l2.2762 4.6073v-4.6073h1.4098v8.0767H85.861l-2.2897-4.8097v4.8097h-1.4574l.0034-8.0767Zm8.1772 4.9971-1.8923-4.9858h1.5933l1.1551 3.2026 1.0837-3.2026h1.5593l-1.8685 4.9858v3.0795h-1.6306v-3.0795Zm-40.2468 6.6108v.4224h-1.386v3.2819h-.581v-3.2819h-1.3928v-.4224h3.3598Zm4.345 3.7046h-.4485c-.0455.0025-.0904-.0101-.1257-.0352-.0339-.0215-.0598-.051-.0747-.085l-.4009-.8799h-1.9228l-.4009.8799c-.0114.0368-.0323.0709-.0612.0997-.0355.0245-.0802.0371-.1256.0352h-.4485l1.6986-3.7041h.5912l1.719 3.6894Zm-2.813-1.3755h1.6036l-.6795-1.5074a2.6989 2.6989 0 0 1-.1257-.349c-.0238.0704-.0442.1378-.0645.1965l-.0612.1554-.6727 1.5045Zm5.7414 1.0117c.1064.0048.213.0048.3193 0 .0919-.0082.1828-.0229.2718-.044.0832-.0176.165-.0402.2446-.0675.0748-.0264.1495-.0587.2276-.0909v-.833h-.6794a.1395.1395 0 0 1-.0494-.0065.12462.12462 0 0 1-.0423-.0229.08636.08636 0 0 1-.0259-.0304.07408.07408 0 0 1-.0081-.037v-.2846h1.3181v1.4197c-.1076.0665-.2212.1253-.3397.176a2.50604 2.50604 0 0 1-.3771.1261c-.1389.0353-.281.0608-.4247.0763a5.16048 5.16048 0 0 1-.4959.0235c-.293.0021-.5837-.0447-.8562-.1379-.2543-.0883-.4854-.22-.6794-.3872-.1891-.1689-.338-.3682-.4382-.5866-.1071-.2456-.1601-.5062-.1563-.7685-.0036-.264.0482-.5263.1529-.7744.0977-.2195.2469-.4192.4382-.5866.1939-.1667.4251-.2974.6795-.3843.2909-.0945.5996-.1412.9104-.1378.1582-.0002.3161.0106.4722.0322.1381.0194.2736.0509.4043.0939.1188.0385.2327.0877.3397.1466.1041.0579.203.1227.2956.1936l-.1631.2288c-.0128.0209-.0318.0385-.0551.0509-.0233.0123-.05.0191-.0774.0195-.0376-.001-.0741-.0112-.1053-.0293-.051-.0235-.1053-.0528-.1665-.088a1.5038 1.5038 0 0 0-.2276-.0997 2.12666 2.12666 0 0 0-.3125-.0822 2.61439 2.61439 0 0 0-.4315-.0322c-.2241-.0022-.4466.0327-.6556.1026-.1891.0655-.3595.1656-.4994.2934-.1408.1331-.2484.2899-.316.4605-.1517.4012-.1517.8336 0 1.2348.0744.1743.1901.3331.3398.4664.1393.1271.3084.2271.496.2933.216.0641.4449.089.6726.0734Zm5.4151-.0588h1.8549v.4223h-2.4222v-3.7043h.5809l-.0136 3.282Zm3.7846.4223h-.581v-3.7043h.581v3.7043Zm2.1606-3.6867c.0345.017.0646.04.0883.0675l2.4833 2.7923a.88124.88124 0 0 1 0-.132v-2.76h.5062v3.7192h-.2921c-.0433.003-.0867-.0041-.1257-.0206-.0353-.0184-.0664-.0423-.0918-.0704l-2.4799-2.7893v2.8803h-.4858v-3.7046h.3024a.26783.26783 0 0 1 .0951.0176Zm7.355-.0176v.4077h-2.0587v1.2231h1.668v.393h-1.668v1.2641h2.0587v.4077h-2.6566v-3.6956h2.6566ZM15.1617 2.74242l25.7951 6.32331V31.2237l-25.7951-6.3204V2.74242ZM13.5073.85364V25.9797l29.1006 7.1357V7.99229L13.5073.85364Z"/>
  <path fill="#AFB1B8" d="M29.1039 44.7791 0 37.6375V12.514l29.1039 7.1388v25.1263Z"/>
  <path fill="#AFB1B8" d="m13.9897 2.4579 25.4587 6.24401-10.8269 9.34989-25.4621-6.2469 10.8303-9.347ZM13.5073.85364 0 12.5146l29.1039 7.1385L42.6078 7.99217 13.5073.85364ZM30.7414 43.3657l11.8664-10.2472-11.8664-2.9123v13.1595Z"/>
</svg>
