<svg xmlns="http://www.w3.org/2000/svg" fill="none" viewBox="0 0 40 50">
  <path fill="#AFB1B8" fill-rule="evenodd" d="M17.1136 3.0215h-.1366c-.2099-.01272-.4199-.0178-.6299-.02289h-.4553c-.3972 0-.802.01017-1.2042.03051a.62817.62817 0 0 0-.091 0c-3.6444.20649-7.21489 1.11737-10.51611 2.68278l-.43259.20852V28.0616l1.01189-.3433c.88794-.3052 1.83405-.5798 2.81306-.8341a34.33355 34.33355 0 0 1 8.09515-1.0757v2.9091c-.3618.0026-.7134.0127-1.065.0305h-.0835c-2.102.1153-4.1878.4356-6.22821.9562-2.58413.6469-5.07696 1.6183-7.41968 2.8913V4.19886c2.43308-1.41913 5.05372-2.48501 7.78396-3.16592A29.79302 29.79302 0 0 1 15.8918.08698h.4275c.511.01271 1.0094.0356 1.4774.0712a21.09084 21.09084 0 0 1 3.6554.58232v2.86332a22.6239 22.6239 0 0 0-3.5416-.53401 59.2017 59.2017 0 0 1-.0726-.00618c-.2468-.02105-.4939-.04213-.7243-.04213Zm5.0392 2.92686c.6349.04831 1.2927.0712 1.958.0712a31.46675 31.46675 0 0 0 7.7131-.98919c2.5829-.64943 5.0747-1.62162 7.4172-2.89383V30.0272c-2.4344 1.4183-5.0558 2.4841-7.7865 3.1659a29.93778 29.93778 0 0 1-7.3362.9434 22.4 22.4 0 0 1-5.5654-.656V5.40926c.43.09918.8727.19072 1.323.26701.7387.1246 1.5179.21615 2.2768.27209Zm14.1943.21615-1.0119.34075c-.931.31278-1.8695.59249-2.8131.8417a34.26326 34.26326 0 0 1-8.4063 1.07819c-.6602 0-1.2673-.0178-1.8542-.05594l-.807-.0534V31.0927l.6931.061c.6426.0559 1.3054.0839 1.9732.0839a26.88366 26.88366 0 0 0 6.6203-.857c1.7811-.4467 3.514-1.0694 5.1733-1.8588l.4326-.2085V6.16451Z" clip-rule="evenodd"/>
  <path fill="#AFB1B8" d="M2.73713 42.2994a1.49304 1.49304 0 0 0-.51477-.3478 1.48576 1.48576 0 0 0-.61095-.1074 1.67624 1.67624 0 0 0-.65014.1221 1.5025 1.5025 0 0 0-.50595.3331 1.4636 1.4636 0 0 0-.32633.5086 1.65031 1.65031 0 0 0-.11637.6281v3.794a1.78854 1.78854 0 0 0 .14925.7782c.08956.1944.21885.3677.37946.5085a1.3278 1.3278 0 0 0 .52113.2696c.18448.0518.37509.0784.56665.0788a1.418 1.418 0 0 0 .6122-.1322 1.60004 1.60004 0 0 0 .50594-.3509 1.64905 1.64905 0 0 0 .3314-.5086 1.53266 1.53266 0 0 0 .12142-.6052v-.4247h-.99165v.3382a.88126.88126 0 0 1-.05818.3382.60757.60757 0 0 1-.1442.2136.60564.60564 0 0 1-.20743.1094.69726.69726 0 0 1-.20744.0356.50391.50391 0 0 1-.25995-.0388.50646.50646 0 0 1-.20552-.1647.89835.89835 0 0 1-.13155-.5085v-3.5372a1.20798 1.20798 0 0 1 .12143-.5671.50693.50693 0 0 1 .2102-.1845.5047.5047 0 0 1 .27551-.0444.52696.52696 0 0 1 .24751.052.5297.5297 0 0 1 .19519.1616.80647.80647 0 0 1 .16443.5086v.3281h.98153v-.3866a1.7885 1.7885 0 0 0-.12142-.6637 1.5638 1.5638 0 0 0-.3314-.534Zm5.89179-.0433c-.31621-.267-.7153-.4145-1.12826-.417a1.73636 1.73636 0 0 0-.59196.1068 1.60692 1.60692 0 0 0-.52365.3102 1.55895 1.55895 0 0 0-.38452.5315 1.77047 1.77047 0 0 0-.14419.7349v3.6389c-.00684.256.04239.5104.14419.7451a1.4766 1.4766 0 0 0 .38452.5086c.1516.1407.32963.2497.52365.3204.18968.0698.38998.1059.59196.1068a1.71189 1.71189 0 0 0 .59196-.1068 1.6547 1.6547 0 0 0 .5363-.3204 1.55357 1.55357 0 0 0 .3744-.5086 1.75494 1.75494 0 0 0 .14419-.7451v-3.6389a1.77047 1.77047 0 0 0-.14419-.7349 1.64324 1.64324 0 0 0-.3744-.5315Zm-.46294 4.9053a.65394.65394 0 0 1-.03918.2857.65121.65121 0 0 1-.15814.2407.72596.72596 0 0 1-.46673.17.72599.72599 0 0 1-.46674-.17.65121.65121 0 0 1-.15814-.2407.65408.65408 0 0 1-.03918-.2857v-3.6389a.65408.65408 0 0 1 .03918-.2857.65202.65202 0 0 1 .15814-.2407.72654.72654 0 0 1 .46674-.17.72651.72651 0 0 1 .46673.17.65202.65202 0 0 1 .15814.2407.65394.65394 0 0 1 .03918.2857v3.6389Zm8.20132 1.625v-6.8887h-.9537l-1.2522 3.6465h-.0177l-1.2624-3.6465h-.9436v6.8887h.9841v-4.1907h.0177l.9638 2.9625h.4908l.9714-2.9625h.0177v4.1907h.9841Zm5.5908-6.4057a1.36707 1.36707 0 0 0-.5566-.3764 2.18377 2.18377 0 0 0-.7134-.1068H19.226v6.8888h.9815v-2.6904h.5059c.3063.0139.611-.0508.8854-.1882.2232-.1239.4093-.3057.5389-.5264.1135-.1832.19-.3871.2251-.6001a4.8985 4.8985 0 0 0 .0531-.7832 3.92308 3.92308 0 0 0-.0961-.9841 1.46698 1.46698 0 0 0-.3617-.6332Zm-.506 2.1005a.86627.86627 0 0 1-.0911.3585.55293.55293 0 0 1-.2529.2416c-.1454.065-.304.0946-.463.0864h-.4477v-2.342h.5059a.94109.94109 0 0 1 .4427.0865.55525.55525 0 0 1 .2302.2543c.0537.121.0829.2515.086.3839v.4578c0 .1602.0101.3255 0 .473h-.0101Zm5.1556-2.5835h-.8045l-1.5178 6.8887h.9815l.2884-1.4799h1.3382l.2884 1.4799h.9816l-1.5558-6.8887Zm-.9057 4.4704.4832-2.4971h.0177l.4807 2.4971h-.9816Zm7.2477-.3204h-.0177l-1.4824-4.15h-.9436v6.8887h.9815V44.644h.0203l1.5001 4.1424h.9233v-6.8887h-.9815v4.15Zm5.9979-4.15-.7893 2.7387h-.0202l-.7893-2.7387h-1.0397l1.3483 3.9771v2.9116h.9816v-2.9116l1.3483-3.9771h-1.0397Z"/>
</svg>
