<svg xmlns="http://www.w3.org/2000/svg" fill="none" viewBox="0 0 44 44">
  <path fill="white" d="M44 21.9999c0 6.0752-2.4624 11.5752-6.4436 15.5564-3.9813 3.9812-9.4813 6.4436-15.5564 6.4436-6.0751 0-11.5751-2.4624-15.55635-6.4436C2.46243 33.5751 0 28.0751 0 21.9999c0-6.0751 2.46243-11.5751 6.44365-15.55631C10.4249 2.46237 15.9249-.00006 22-.00006c6.0751 0 11.5751 2.46243 15.5564 6.44365C41.5376 10.4248 44 15.9248 44 21.9999Z"/>
  <g fill="#AFB1B8" clip-path="url(#clip0_75273_557)">
    <path d="M31.9951 32v-.0008h.005v-7.335c0-3.5883-.7725-6.3525-4.9675-6.3525-2.0167 0-3.37 1.1067-3.9225 2.1558h-.0584v-1.8208h-3.9775v13.3525h4.1417v-6.6117c0-1.7408.33-3.4241 2.4858-3.4241 2.1242 0 2.1559 1.9866 2.1559 3.5358V32h4.1375ZM12.33 18.6475h4.1466V32H12.33V18.6475ZM14.4017 12C13.0758 12 12 13.0758 12 14.4017c0 1.3258 1.0758 2.4241 2.4017 2.4241 1.3258 0 2.4016-1.0983 2.4016-2.4241C16.8025 13.0758 15.7267 12 14.4017 12Z"/>
  </g>
  <defs>
    <clipPath id="clip0_75273_557">
      <path fill="white" d="M12 12h20v20H12z"/>
    </clipPath>
  </defs>
</svg>
