<svg xmlns="http://www.w3.org/2000/svg" fill="none" viewBox="0 0 44 44">
  <path fill="white" d="M44 21.9999c0 6.0752-2.4624 11.5752-6.4437 15.5564-3.9812 3.9812-9.4812 6.4436-15.5563 6.4436-6.0751 0-11.5751-2.4624-15.55635-6.4436C2.46243 33.5751 0 28.0751 0 21.9999c0-6.0751 2.46243-11.5751 6.44365-15.55631C10.4249 2.46237 15.9249-.00006 22-.00006c6.0751 0 11.5751 2.46243 15.5563 6.44365C41.5376 10.4248 44 15.9248 44 21.9999Z"/>
  <g clip-path="url(#clip0_75273_567)">
    <path fill="#AFB1B8" d="M32 15.7988c-.7437.3262-1.5363.5424-2.3625.6474.85-.5074 1.4988-1.305 1.8037-2.2662-.7924.4725-1.6674.8063-2.6.9925-.7525-.8012-1.825-1.2975-2.995-1.2975-2.2699 0-4.0975 1.8425-4.0975 4.1013 0 .3249.0275.6374.0951.9349-3.4088-.1662-6.425-1.7999-8.4513-4.2887-.3538.6138-.5612 1.3163-.5612 2.0725 0 1.42.7312 2.6787 1.8212 3.4075-.6588-.0125-1.305-.2037-1.8525-.505v.045c0 1.9925 1.4212 3.6475 3.285 4.0287-.3338.0913-.6975.135-1.075.135-.2625 0-.5275-.0149-.7763-.07.5313 1.6238 2.0388 2.8176 3.8313 2.8563-1.395 1.0913-3.1662 1.7487-5.0837 1.7487-.3363 0-.6588-.0149-.9813-.0562 1.8162 1.1713 3.9688 1.84 6.29 1.84 7.545 0 11.67-6.25 11.67-11.6675 0-.1813-.0062-.3562-.015-.53.8138-.5775 1.4975-1.2987 2.055-2.1287Z"/>
  </g>
  <defs>
    <clipPath id="clip0_75273_567">
      <path fill="white" d="M12 12h20v20H12z"/>
    </clipPath>
  </defs>
</svg>
