<svg xmlns="http://www.w3.org/2000/svg" fill="none" viewBox="0 0 63 47">
  <path fill="#AFB1B8" d="M4.7569 38.8221c.24368.2762.37348.622.36668.977.01243.2316-.03218.4627-.13054.6763-.09835.2136-.24793.4043-.43765.5578-.47338.3273-1.05984.4873-1.6517.4506H0v-6.1914h2.84423c.56143-.0342 1.1184.1112 1.57572.4113.18368.1408.32913.3187.42487.5198.09573.201.13914.4196.1268.6387.01669.3415-.10047.6773-.33034.9467-.22069.246-.52568.4165-.86549.4839.38522.0644.73294.252.98111.5293Zm-3.40581-.9346h1.21565c.27629.0187.55069-.0543.773-.2056.09127-.0758.16229-.1697.20754-.2746.04526-.1049.06354-.218.05343-.3304.00858-.112-.01008-.2243-.05464-.3289-.04456-.1046-.1139-.1989-.20303-.276-.22896-.1556-.51189-.2298-.79612-.2087H1.35109v1.6242Zm2.10757 2.3744c.09757-.0776.17426-.1747.22411-.2838.04985-.1091.07151-.2273.06329-.3453.00744-.1195-.01521-.2389-.06618-.349-.05098-.1101-.12893-.2081-.22783-.2862-.23784-.1615-.53035-.2407-.82585-.2238H1.35109v1.7028h1.29163c.29073.0154.5785-.0603.81594-.2147Zm7.11224 1.222-1.58233-2.4198h-.59461v2.4198h-1.361v-6.1915h2.57665c.64949-.0415 1.29159.1469 1.79379.5263.3601.336.5774.7788.6125 1.2485.0351.4698-.1141.9355-.4209 1.3134-.3179.3334-.7522.5558-1.2289.6291l1.6847 2.4742h-1.4799Zm-2.17694-3.2636h1.11325c.77299 0 1.15949-.3126 1.15949-.9377.0079-.1276-.0133-.2554-.0622-.3752-.0489-.1197-.1245-.2289-.2219-.3205-.2443-.186-.55886-.2762-.87539-.251H8.38075l.01321 1.8844Zm9.61624 2.0173h-2.7121l-.479 1.2461H13.392l2.4908-6.1219h1.5427l2.4808 6.1219h-1.427l-.4691-1.2461Zm-.3634-.9377-.991-2.6133-.991 2.6133h1.982Zm9.6756 2.1839h-1.3511l-3.0292-4.2103v4.2103h-1.3478v-6.1914h1.3478l3.0292 4.2345v-4.2345h1.3511v6.1914Zm7.7102-1.482c-.2794.4674-.705.8477-1.2223 1.0919-.5881.272-1.2408.4061-1.8994.3902H29.506v-6.1915h2.4049c.6575-.0157 1.3093.1151 1.8994.3811.5172.2387.9433.6151 1.2223 1.0798.2781.5036.423 1.06.423 1.6243 0 .5642-.1449 1.1206-.423 1.6242Zm-1.546-.1482c.3856-.4113.5976-.9355.5976-1.4776 0-.542-.212-1.0662-.5976-1.4775-.4661-.3726-1.0739-.5617-1.6914-.5263h-.9381v4.0077h.9381c.6175.0354 1.2253-.1538 1.6914-.5263ZM18.8558.85364S36.2945 6.88177 35.9245 15.6049v14.7542S18.4991 24.328 18.8624 15.6049L18.8558.85364ZM51.4603 26.9049c3.2935-2.0753 7.103-3.3607 11.0796-3.7385v-4.6186c-4.582 1.617-8.469 4.5489-11.0796 8.3571Z"/>
  <path fill="#AFB1B8" d="M49.4816 28.2964c2.6957-4.9699 7.3689-8.805 13.0584-10.7164V4.27155S37.705 12.8585 38.2303 25.2808V46.287s1.1066-.3841 2.8475-1.104c0-.6715 0-1.349.0793-2.0295.514-5.767 3.5083-11.1111 8.3245-14.8571Z"/>
  <path fill="#AFB1B8" d="M47.1197 36.1c.1305-1.4568.4216-2.8979.8688-4.301-2.9989 3.235-4.8151 7.2494-5.1929 11.4785-.0364.3993-.0562.7985-.0661 1.2099 1.4105-.6201 3.0523-1.3944 4.7767-2.3048-.44-2.0009-.5702-4.0485-.3865-6.0826Zm.9878.0756c-.1654 1.8403-.0621 3.6926.3072 5.5079 6.7852-3.7173 14.4094-9.4611 14.1154-16.4027v-.6049c-4.8477.4967-9.3833 2.437-12.9097 5.523-.8256 1.9124-1.3355 3.9268-1.5129 5.9767Z"/>
</svg>
