<svg xmlns="http://www.w3.org/2000/svg" fill="none" viewBox="0 0 41 46">
  <path fill="#AFB1B8" fill-rule="evenodd" d="m6 .08698 7.0078 6.63412L0 6.71344V38.9007h34V26.594l7 6.6268V.08698H6ZM33.6924 25.8153 13.8226 7.00493h19.8698V25.8153Zm-6.1693 8.3772H5.38008V12.5449H6.9453v20.1818h20.5778v1.4658Zm-16.9142 8.9936-.81788 1.6846-.81788-1.6846h-.68603l1.19385 2.2461v1.3086h.62014v-1.3086l1.1914-2.2461h-.6836Zm1.0278 3.5547.2881-.8277h1.377l.2905.8277h.6445l-1.3452-3.5547h-.5542l-1.3428 3.5547h.6421Zm.9766-2.8003.5151 1.4746h-1.0303l.5152-1.4746Zm3.2568 1.3892c-.0895.1367-.1343.2872-.1343.4516 0 .2995.105.5428.315.73.2116.1855.4931.2783.8447.2783s.6543-.0952.9082-.2856l.2002.2368h.6885l-.5225-.6177c.2051-.2799.3076-.6388.3076-1.0767h-.5151c0 .2393-.0496.4566-.1489.6519l-.6861-.8105.2417-.1758c.1709-.1237.2938-.2474.3687-.3711.0749-.1253.1123-.2621.1123-.4102 0-.2246-.083-.4126-.249-.5639-.1644-.153-.376-.2295-.6348-.2295-.2865 0-.5143.0813-.6836.2441-.1693.1611-.2539.3809-.2539.6592 0 .1139.0269.2319.0806.354.0553.1221.1522.2702.2905.4443-.2637.1888-.4403.3524-.5298.4908Zm1.604.7861c-.1741.1334-.3613.2002-.5615.2002-.1774 0-.319-.0513-.4248-.1538-.1058-.1026-.1587-.236-.1587-.4004 0-.1904.0977-.3597.293-.5078l.0757-.0537.7763.9155Zm-.6372-1.5747c-.1676-.2067-.2515-.3784-.2515-.5152 0-.1188.0342-.2172.1026-.2954.0683-.0781.1603-.1172.2759-.1172.1074 0 .1961.0334.2661.1001.07.0651.105.1441.105.2369 0 .1399-.0505.2547-.1514.3442l-.0757.061-.271.1856Zm5.7861 1.9311c.2442-.2132.3842-.5094.42-.8886h-.6153c-.0325.2539-.1098.4353-.2319.5444-.1221.109-.3044.1636-.5469.1636-.2653 0-.4671-.1009-.6054-.3028-.1368-.2018-.2051-.4948-.2051-.8789v-.3149c.0032-.3792.0765-.6665.2197-.8618.1449-.197.3516-.2954.6201-.2954.2311 0 .4061.0569.5249.1709.1205.1123.1953.2962.2246.5517h.6153c-.0391-.389-.1783-.6901-.4175-.9033-.2393-.2132-.555-.3198-.9473-.3198-.2913 0-.5485.0691-.7715.2075-.2213.1383-.3914.3353-.5102.5908-.1188.2555-.1782.551-.1782.8862v.3321c.0048.3271.0659.6144.1831.8618.1172.2474.2832.4386.498.5737.2165.1335.4663.2002.7495.2002.4053 0 .73-.1058.9741-.3174Zm3.6304-.498c.1205-.2637.1807-.5697.1807-.918v-.1977c-.0016-.3467-.0635-.6503-.1856-.9107-.122-.262-.2954-.4622-.52-.6006-.223-.1399-.4793-.2099-.769-.2099s-.5469.0708-.7715.2124c-.223.1399-.3963.3426-.52.6079-.1221.2653-.1831.5713-.1831.9179v.2002c.0016.3402.0634.6405.1855.9009.1237.2604.2979.4614.5225.6031.2262.1399.4834.2099.7715.2099.2913 0 .5485-.07.7714-.2099.2246-.1417.3972-.3435.5176-.6055Zm-.6616-2.0093c.1497.21.2246.5119.2246.9058v.1855c0 .4004-.0741.7048-.2222.9131-.1464.2083-.3564.3125-.6298.3125-.2702 0-.4818-.1066-.6348-.3198-.1514-.2132-.2271-.5152-.2271-.9058v-.2051c.0033-.3825.0798-.6779.2295-.8862.1514-.21.3605-.3149.6275-.3149.2734 0 .4842.1049.6323.3149Z" clip-rule="evenodd"/>
</svg>
