<svg xmlns="http://www.w3.org/2000/svg" fill="none" viewBox="0 0 68 70">
  <path fill="#212121" d="M67.4614 33.4715C67.4576 14.9819 52.4656-.00374 33.9754 0 15.4858.00374.50017 14.9963.5039 33.4859c.00321 14.5643 9.42132 27.4554 23.2956 31.8854.1324.0417.2702.063.4086.0625.2638-.0005.5223-.071.7492-.2051.2954-.1746.5159-.4523.6195-.7797l8.4547-26.7969c2.3114-.0117 4.1753-1.8953 4.163-4.2062-.0118-2.3114-1.8948-4.1753-4.2062-4.1635a4.1272 4.1272 0 0 0-1.7939.4187L21.0251 18.5302c-.5544-.5351-1.4372-.5196-1.9723.0342-.5223.541-.5223 1.3976 0 1.9386l11.1634 11.1762c-.8566 1.7485-.3669 3.8591 1.1733 5.0511l-8.0557 25.5344C7.41354 56.4002-.73831 38.7405 5.12618 22.8203 10.9907 6.90002 28.6503-1.25183 44.5706 4.61266 60.4909 10.4771 68.6427 28.1374 62.7782 44.0571c-2.8652 7.778-8.7521 14.0681-16.3234 17.4418l-.8706-4.1c-.1591-.7535-.8998-1.2353-1.6534-1.0756a1.40212 1.40212 0 0 0-.6398.3242l-8.3932 7.4934c-.5758.5121-.627 1.3938-.1143 1.9696.1666.1869.3802.3257.6195.4021l10.7158 3.4201c.7333.2355 1.5189-.1677 1.7544-.9015.0748-.2318.0871-.4785.0369-.7167l-.8556-4.023c12.3907-5.2237 20.4357-17.3735 20.4069-30.82Zm-33.4785-1.3949c.7701 0 1.395.6248 1.395 1.3949 0 .7707-.6249 1.395-1.395 1.395-.7706 0-1.3949-.6243-1.3949-1.395 0-.7701.6243-1.3949 1.3949-1.3949Zm4.5945 32.515 4.7777-4.2618 1.3186 6.2132-6.0963-1.9514Z"/>
</svg>
